<svg width="149" height="117" viewBox="0 0 149 117" fill="none" xmlns="http://www.w3.org/2000/svg">
<path d="M1.00012 115.665C1.87805 115.665 28.6548 114.349 33.4834 113.91C38.312 113.471 73.4291 112.155 74.3071 111.716" stroke="#4F5667" stroke-width="1.2197" stroke-linecap="round"/>
<path d="M35.2391 114.349L16.8026 93.7251" stroke="#4F5667" stroke-width="1.2197" stroke-linecap="round"/>
<path d="M35.2392 114.349L32.6052 84.0717" stroke="#4F5667" stroke-width="1.2197" stroke-linecap="round"/>
<path d="M35.2394 114.349L54.1148 90.6536" stroke="#4F5667" stroke-width="1.2197" stroke-linecap="round"/>
<path d="M14.608 93.2867L15.047 91.5315L17.242 92.4091" stroke="#4F5667" stroke-width="1.2197" stroke-linecap="round"/>
<path d="M31.2888 82.3169L32.1668 80.9999L33.0448 82.3169" stroke="#4F5667" stroke-width="1.2197" stroke-linecap="round"/>
<path d="M54.1147 88.46L55.8707 88.021L56.3097 89.338" stroke="#4F5667" stroke-width="1.2197" stroke-linecap="round"/>
<path d="M44.0185 89.776C43.5795 90.7999 42.3504 92.6721 40.9456 91.97C39.1896 91.0924 40.9456 88.4596 43.1405 90.6536C43.8429 91.7067 44.3111 91.97 44.4575 91.97" stroke="#4F5667" stroke-width="1.2197" stroke-linecap="round"/>
<path d="M27.338 91.0927C26.46 92.1166 24.5285 93.901 23.8261 92.8479C22.9481 91.5315 24.7041 90.6539 25.582 91.0927C26.2844 91.4438 27.338 92.4092 27.777 92.848" stroke="#4F5667" stroke-width="1.2197" stroke-linecap="round"/>
<path d="M6.70691 98.9903C6.70691 99.5754 6.79471 100.746 7.1459 100.746C7.58489 100.746 7.58489 98.5515 8.02387 98.5515C8.46286 98.5515 9.34084 99.4291 9.34084 100.307" stroke="#4F5667" stroke-width="1.2197" stroke-linecap="round"/>
<path d="M10.6577 98.5521C10.6577 98.1133 10.7455 97.3234 11.0967 97.6745C11.4479 98.0255 11.5357 99.5759 11.5357 100.307" stroke="#4F5667" stroke-width="1.2197" stroke-linecap="round"/>
<path d="M22.9481 110.926C22.9481 110.487 23.0359 109.698 23.3871 110.049C23.7383 110.4 23.8261 111.95 23.8261 112.681" stroke="#4F5667" stroke-width="1.2197" stroke-linecap="round"/>
<path d="M44.8967 109.171C44.8967 108.732 44.9845 107.942 45.3357 108.293C45.6869 108.644 45.7747 110.194 45.7747 110.926" stroke="#4F5667" stroke-width="1.2197" stroke-linecap="round"/>
<path d="M22.0706 108.644C21.3389 109.229 20.139 110.838 21.1926 112.593" stroke="#4F5667" stroke-width="1.2197" stroke-linecap="round"/>
<path d="M25.1429 109.083C25.8746 109.961 27.1623 111.979 26.4599 113.032" stroke="#4F5667" stroke-width="1.2197" stroke-linecap="round"/>
<path d="M43.1404 107.767C42.7014 108.352 41.999 109.786 42.7014 110.839" stroke="#4F5667" stroke-width="1.2197" stroke-linecap="round"/>
<path d="M45.774 107.328C46.652 107.767 48.3202 109.083 47.969 110.838" stroke="#4F5667" stroke-width="1.2197" stroke-linecap="round"/>
<path d="M28.6547 106.889C28.6547 106.45 32.6056 104.695 33.9225 105.134" stroke="#4F5667" stroke-width="1.2197" stroke-linecap="round"/>
<path d="M34.8003 107.328C35.3856 106.743 37.1708 106.099 39.6292 108.206" stroke="#4F5667" stroke-width="1.2197" stroke-linecap="round"/>
<path d="M111.705 19.0267C111.804 18.6285 111.923 18.1647 112.053 17.6677M116.237 19.0267C116.107 18.5097 115.946 17.882 115.769 17.2147M115.769 17.2147C115.119 14.7639 114.256 11.7787 113.971 11.7787C113.668 11.7787 112.712 15.1492 112.053 17.6677M115.769 17.2147L112.053 17.6677M115.769 17.2147L118.049 16.7617" stroke="#4F75CD" stroke-width="1.25918" stroke-linecap="round"/>
<path d="M134.362 16.3079C134.362 15.8063 134.368 15.1705 134.383 14.4959M134.383 14.4959C134.427 12.5307 134.546 10.2357 134.816 9.96588C135.269 9.51288 138.894 8.60687 135.269 13.5899C134.906 14.3147 134.527 14.4959 134.383 14.4959ZM134.383 14.4959C136.793 14.6469 140.889 15.5831 137.988 18.1199C135.088 19.2071 134.06 18.5729 133.909 18.1199" stroke="#4F75CD" stroke-width="1.25918" stroke-linecap="round"/>
<path d="M148.688 13.137C148.688 20.0056 142.721 25.6445 135.269 25.6445C127.818 25.6445 121.851 20.0056 121.851 13.137C121.851 6.26847 127.818 0.629589 135.269 0.629589C142.721 0.629589 148.688 6.26847 148.688 13.137Z" stroke="#4F75CD" stroke-width="1.25918"/>
<path d="M125.299 8.1543L122.127 10.8723" stroke="#4F75CD" stroke-width="1.25918" stroke-linecap="round"/>
<path d="M127.842 14.4961C127.842 20.6308 122.668 25.6446 116.236 25.6446C109.803 25.6446 104.63 20.6308 104.63 14.4961C104.63 8.3614 109.803 3.34767 116.236 3.34767C122.668 3.34767 127.842 8.3614 127.842 14.4961Z" stroke="#4F75CD" stroke-width="1.25918"/>
<path d="M126.659 9.51288L122.127 14.0429" stroke="#4F75CD" stroke-width="1.25918" stroke-linecap="round"/>
<path d="M127.565 12.2307L122.58 16.7607" stroke="#4F75CD" stroke-width="1.25918" stroke-linecap="round"/>
<path d="M128.018 14.949L123.486 19.0261" stroke="#4F75CD" stroke-width="1.25918" stroke-linecap="round"/>
<path d="M127.112 18.1197L124.393 20.3847" stroke="#4F75CD" stroke-width="1.25918" stroke-linecap="round"/>
<path d="M38.9429 51.6394L44.6982 52.1883C41.5976 55.0439 35.4879 61.0328 35.8536 62.1438C36.2192 63.2548 42.135 61.1931 45.0471 60.0233M47.6445 54.1117L51.928 53.9209M126.473 57.4398L130.321 56.407M49.2312 57.6162C49.4567 57.6062 51.6837 57.0301 52.769 56.7433M128.03 60.2395C128.255 60.179 130.45 59.3885 131.52 59.0007M60.8044 58.5307C60.6958 58.1411 60.574 55.5919 60.4729 52.8253M60.4729 52.8253C60.398 50.7779 60.3345 48.6115 60.2959 47.113C63.4991 47.4152 68.019 48.9808 60.4729 52.8253ZM71.0948 54.4971C71.176 53.8713 71.2883 53.0797 71.4231 52.2219M71.4231 52.2219C71.8519 49.4942 72.5094 46.0978 73.1254 45.2394C73.8104 44.2847 74.0793 48.543 74.1538 51.8253M71.4231 52.2219C69.4074 52.5599 67.1571 52.9778 67.7011 52.8928M71.4231 52.2219C72.6432 52.0173 73.7773 51.842 74.1538 51.8253M74.1538 51.8253C74.1673 52.4223 74.1744 52.987 74.1764 53.4821C73.9909 52.9378 73.7265 51.8443 74.1538 51.8253ZM74.1538 51.8253L76.1507 51.7364M144.72 53.3633C144.795 52.5943 144.899 51.6214 145.025 50.5675M145.025 50.5675C145.426 47.216 146.049 43.0441 146.656 41.9943C147.332 40.8267 147.645 46.0685 147.753 50.1075M145.025 50.5675C143.012 50.9627 140.765 51.4537 141.308 51.3548M145.025 50.5675C146.243 50.3283 147.376 50.1243 147.753 50.1075M147.753 50.1075C147.772 50.8422 147.785 51.537 147.792 52.1462C147.601 51.4746 147.326 50.1266 147.753 50.1075ZM147.753 50.1075L149.75 50.0186M155.09 41.4611C153.417 43.2723 150.607 48.9749 152.755 57.2956M80.4508 51.9361L80.2952 48.4412M107.547 50.0137L107.391 46.5188M100.457 67.4902L100.301 63.9953M170.512 66.5152L170.356 63.0203M152.014 68.7689L151.859 65.274M171.986 51.4345L171.799 47.2406M84.0373 68.2214L83.8817 64.7265M99.3841 64.9563C100.564 65.1744 103.094 65.5713 103.771 65.4149M168.3 65.0291C169.48 65.2471 172.009 65.6441 172.687 65.4877M150.525 66.6573C151.702 66.4205 154.197 65.8477 154.768 65.4504M171.009 48.6343C172.189 48.8523 174.719 49.2493 175.396 49.0929M81.9832 66.4292C83.167 66.2329 85.6806 65.7458 86.2644 65.3683M111.796 49.0538C112.661 48.5261 114.519 46.8782 115.023 44.5081C115.527 42.1379 114.351 47.9617 113.7 51.1699M105.461 68.6462C106.238 67.9958 107.819 66.13 107.921 63.8699C108.023 61.6097 107.835 67.151 107.728 70.2041M175.624 67.5542C176.402 66.9038 177.983 65.038 178.085 62.7779C178.187 60.5177 177.999 66.0589 177.892 69.1121M176.367 51.1033C177.623 50.5121 180.367 48.5902 181.289 45.6316C182.211 42.6731 180.033 49.9483 178.828 53.9558M162.864 55.4155L163.823 43.2174C165.997 43.3439 169.319 44.7912 165.207 49.5685C170.459 48.3774 168.5 53.8246 164.363 55.3488M76.6016 77.1332C76.2328 73.2027 75.5761 66.1819 75.2922 63.0693M75.2922 63.0693C75.2094 62.1624 75.1583 61.5873 75.1552 61.5171C75.1414 61.2061 75.2408 62.4223 75.2922 63.0693ZM75.2922 63.0693C77.7322 62.9607 81.7391 63.8536 78.2464 68.2945M137.76 59.9939C138.092 56.0683 138.687 49.0567 138.957 45.9494M138.957 45.9494C139.036 45.044 139.087 44.47 139.096 44.4005C139.136 44.0923 139.02 45.3047 138.957 45.9494ZM138.957 45.9494C141.153 46.2337 144.578 47.7545 140.714 51.563M143.07 76.4784C142.447 72.5823 143.363 64.7454 142.881 61.6595M142.881 61.6595C142.88 61.6526 142.879 61.6458 142.878 61.639M142.881 61.6595C146.384 61.3513 149.999 64.0127 145.251 66.8654M142.878 61.639C142.812 61.2978 142.455 61.1358 142.043 61.061M142.878 61.639C142.826 61.3923 142.463 61.1933 142.043 61.061M142.043 61.061C141.401 60.9442 140.627 61.0399 140.623 60.9977C140.607 60.8116 141.393 60.8563 142.043 61.061ZM75.2484 63.6081C74.744 63.7173 73.7596 64.0256 73.8571 64.3854M121.458 42.6329C121.528 42.005 121.366 40.9875 120.159 41.941C118.65 43.1328 113.192 52.0919 120.588 51.5751C121.825 51.2951 122.456 51.1483 122.617 51.1098M189.237 43.1107C189.333 42.5262 189.144 41.5832 187.623 42.4864C185.721 43.6154 178.773 52.0182 188.021 51.4323C189.571 51.1544 190.361 51.009 190.563 50.971M60.0348 59.2799C60.5346 59.6152 90.4381 60.3093 94.257 58.9476C97.3121 57.8581 114.659 58.2773 122.951 58.6231M135.503 58.0487C135.999 58.3063 165.874 58.5608 169.703 57.458C172.766 56.5757 190.097 56.7362 198.379 56.9267M91.7141 47.8593C92.1252 51.7357 93.0791 59.695 93.6065 60.5212C94.1338 61.3475 94.227 57.6289 94.2078 55.6663M94.7635 64.1187C94.4677 68.0311 93.9633 76.0831 94.312 76.992C94.6606 77.901 95.401 74.231 95.7276 72.2825M160.642 49.9354C160.346 53.8478 159.842 61.8998 160.19 62.8088C160.539 63.7177 161.279 60.0478 161.606 58.0992M160.909 64.2389C161.019 67.7443 161.341 74.9482 161.748 75.7197C162.156 76.4912 162.477 73.1554 162.586 71.391M91.768 49.0695C91.8374 50.6286 91.4967 53.56 89.5783 52.8123C87.1803 51.8775 88.6778 48.2697 89.3469 47.615C90.0159 46.9603 90.4737 45.4818 91.5243 47.518M94.6405 65.7684C94.4469 67.2122 93.5656 69.8377 91.5888 68.7891C89.1179 67.4783 91.3863 64.4507 92.234 63.9763C93.0818 63.5019 93.8403 62.2318 94.6414 64.2987M160.519 51.5851C160.326 53.0289 159.444 55.6544 157.468 54.6058C154.997 53.295 157.265 50.2674 158.113 49.793C158.961 49.3187 159.719 48.0485 160.52 50.1154M160.957 65.717C160.92 67.0193 160.369 69.4419 158.457 68.7137C156.067 67.8034 157.849 64.881 158.579 64.3726C159.309 63.8641 159.88 62.6579 160.814 64.4115M96.4112 41.93C97.2613 45.2723 98.4132 52.0982 96.2198 52.6639M97.1074 40.4694C97.4095 40.3547 111.355 47.634 100.407 52.4769M191.771 40.4465C193.741 43.8533 196.957 51.3703 194.061 54.1831" stroke="url(#paint0_linear_2_532)" stroke-width="1.16449" stroke-linecap="round"/>
<defs>
<linearGradient id="paint0_linear_2_532" x1="192.341" y1="31.0516" x2="33.3167" y2="76.3223" gradientUnits="userSpaceOnUse">
<stop stop-color="#4C7DF1"/>
<stop offset="1" stop-color="#555963"/>
</linearGradient>
</defs>
</svg>
