<svg width="228" height="53" viewBox="0 0 228 53" fill="none" xmlns="http://www.w3.org/2000/svg">
<path d="M5.2387 16.7278L13.2341 17.4903C8.92675 21.4573 0.439006 29.7773 0.946993 31.3207C1.45498 32.8641 9.67323 29.9999 13.7189 28.3749M17.3273 20.1623L23.278 19.8973M126.838 24.7858L132.183 23.351M19.5315 25.0309C19.8447 25.0169 22.9385 24.2166 24.4463 23.8182M129 28.6752C129.313 28.5912 132.363 27.4929 133.849 26.9543M35.6092 26.3013C35.4583 25.76 35.2892 22.2187 35.1487 18.3752M35.1487 18.3752C35.0447 15.531 34.9564 12.5213 34.9028 10.4395C39.3528 10.8594 45.6319 13.0344 35.1487 18.3752ZM49.9049 20.6977C50.0177 19.8284 50.1736 18.7286 50.361 17.537M50.361 17.537C50.9567 13.7476 51.8701 9.02924 52.7258 7.83675C53.6774 6.51047 54.051 12.4262 54.1545 16.986M50.361 17.537C47.5607 18.0066 44.4345 18.5871 45.1903 18.4691M50.361 17.537C52.0559 17.2528 53.6315 17.0093 54.1545 16.986M54.1545 16.986C54.1733 17.8153 54.1831 18.5998 54.1859 19.2878C53.9281 18.5315 53.5609 17.0124 54.1545 16.986ZM54.1545 16.986L56.9286 16.8625M152.186 19.1227C152.29 18.0543 152.435 16.7028 152.61 15.2387M152.61 15.2387C153.167 10.5827 154.033 4.78694 154.877 3.32857C155.815 1.7066 156.25 8.98858 156.4 14.5997M152.61 15.2387C149.814 15.7876 146.692 16.4699 147.447 16.3324M152.61 15.2387C154.303 14.9064 155.877 14.623 156.4 14.5997M156.4 14.5997C156.427 15.6202 156.445 16.5855 156.455 17.4319C156.189 16.4988 155.806 14.6261 156.4 14.5997ZM156.4 14.5997L159.174 14.4761M166.593 2.58783C164.268 5.10403 160.365 13.0263 163.349 24.5855M62.9025 17.1399L62.6862 12.2847M100.544 14.4693L100.328 9.61417M90.6949 38.7481L90.4787 33.8929M188.017 37.3936L187.801 32.5384M162.32 40.5244L162.104 35.6693M190.065 16.4431L189.805 10.6169M67.8849 39.7639L67.6687 34.9087M89.2049 35.2279C90.8443 35.5308 94.3583 36.0823 95.2994 35.865M184.944 35.329C186.584 35.6319 190.098 36.1834 191.039 35.9661M160.251 37.5909C161.886 37.262 165.352 36.4662 166.145 35.9143M188.708 12.553C190.347 12.8559 193.861 13.4073 194.802 13.1901M65.0312 37.2741C66.6759 37.0013 70.1678 36.3246 70.9788 35.8002M106.447 13.1357C107.65 12.4027 110.23 10.1135 110.931 6.82075C111.631 3.52806 109.997 11.6187 109.093 16.0756M97.6466 40.354C98.7268 39.4504 100.923 36.8585 101.065 33.7186C101.207 30.5788 100.945 38.2768 100.796 42.5182M195.12 38.8369C196.2 37.9334 198.396 35.3414 198.538 32.2016C198.68 29.0617 198.418 36.7597 198.27 41.0012M196.151 15.983C197.896 15.1618 201.708 12.4918 202.989 8.38167C204.27 4.27156 201.244 14.3785 199.57 19.9458M177.393 21.9736L178.725 5.02775C181.746 5.20347 186.36 7.21408 180.647 13.8508C187.944 12.1962 185.222 19.7635 179.475 21.8809M57.5551 52.1443C57.0426 46.684 56.1304 36.9305 55.7359 32.6065M55.7359 32.6065C55.621 31.3465 55.55 30.5476 55.5457 30.4501C55.5264 30.018 55.6645 31.7076 55.7359 32.6065ZM55.7359 32.6065C59.1257 32.4555 64.6921 33.6959 59.84 39.8653M142.518 28.334C142.979 22.8805 143.805 13.1398 144.18 8.82305M144.18 8.82305C144.29 7.56525 144.361 6.76794 144.373 6.67134C144.429 6.24319 144.268 7.92741 144.18 8.82305ZM144.18 8.82305C147.231 9.21807 151.99 11.3308 146.622 16.6216M149.894 51.2346C149.029 45.8221 150.301 34.9349 149.632 30.6479M149.632 30.6479C149.631 30.6383 149.629 30.6288 149.627 30.6194M149.632 30.6479C154.498 30.2198 159.521 33.9171 152.924 37.8801M149.627 30.6194C149.536 30.1454 149.039 29.9204 148.468 29.8165M149.627 30.6194C149.555 30.2767 149.051 30.0002 148.468 29.8165M148.468 29.8165C147.576 29.6542 146.5 29.7872 146.495 29.7285C146.472 29.47 147.565 29.5321 148.468 29.8165ZM55.6751 33.355C54.9744 33.5067 53.6068 33.935 53.7423 34.4348M119.871 4.21571C119.968 3.34342 119.742 1.92997 118.065 3.25455C115.969 4.91027 108.387 17.3564 118.661 16.6384C120.38 16.2494 121.257 16.0455 121.48 15.9921M214.03 4.87951C214.164 4.06758 213.902 2.75742 211.788 4.01218C209.146 5.58064 199.494 17.254 212.341 16.4401C214.494 16.0541 215.593 15.852 215.873 15.7992M34.54 27.3421C35.2345 27.8079 76.777 28.7723 82.0823 26.8804C86.3265 25.367 110.426 25.9493 121.945 26.4296M139.382 25.6318C140.071 25.9896 181.574 26.3431 186.894 24.811C191.149 23.5854 215.225 23.8083 226.731 24.073M78.5496 11.4764C79.1207 16.8615 80.446 27.9187 81.1785 29.0666C81.9111 30.2144 82.0407 25.0485 82.0139 22.3221M82.786 34.0643C82.3751 39.4994 81.6743 50.6855 82.1587 51.9482C82.643 53.2109 83.6715 48.1126 84.1252 45.4055M174.305 14.3606C173.894 19.7957 173.194 30.9818 173.678 32.2445C174.162 33.5073 175.191 28.4089 175.645 25.7019M174.676 34.2312C174.829 39.1011 175.276 49.1088 175.843 50.1806C176.409 51.2524 176.855 46.6182 177.006 44.1672M78.6245 13.1576C78.7209 15.3236 78.2476 19.396 75.5826 18.3571C72.2512 17.0586 74.3316 12.0465 75.261 11.137C76.1904 10.2275 76.8264 8.17352 78.286 11.0023M82.615 36.356C82.3461 38.3618 81.1217 42.0092 78.3756 40.5525C74.9429 38.7315 78.0942 34.5254 79.272 33.8665C80.4497 33.2075 81.5034 31.4429 82.6164 34.3144M174.135 16.6523C173.866 18.6581 172.642 22.3055 169.896 20.8487C166.463 19.0278 169.614 14.8217 170.792 14.1627C171.97 13.5038 173.024 11.7392 174.137 14.6107M174.743 36.2847C174.692 38.0939 173.926 41.4594 171.27 40.4478C167.95 39.1831 170.426 35.1233 171.44 34.417C172.454 33.7106 173.247 32.035 174.545 34.4711M85.075 3.23926C86.256 7.8824 87.8562 17.3652 84.8091 18.151M86.0421 1.21021C86.4618 1.05081 105.835 11.1634 90.6265 17.8913M217.552 1.17828C220.288 5.91121 224.755 16.354 220.733 20.2616" stroke="url(#paint0_linear_2_289)" stroke-width="1.16449" stroke-linecap="round"/>
<defs>
<linearGradient id="paint0_linear_2_289" x1="218.343" y1="-11.8733" x2="-2.57734" y2="51.0178" gradientUnits="userSpaceOnUse">
<stop stop-color="#4C7DF1"/>
<stop offset="1" stop-color="#555963"/>
</linearGradient>
</defs>
</svg>
